{"glyphs":{"0":{"ha":498,"x_min":0,"x_max":0,"o":""},"1":{"ha":351,"x_min":0,"x_max":0,"o":""},"2":{"ha":578,"x_min":0,"x_max":0,"o":""},"3":{"ha":382,"x_min":0,"x_max":0,"o":""},"4":{"ha":502,"x_min":0,"x_max":0,"o":""},"5":{"ha":467,"x_min":0,"x_max":0,"o":""},"6":{"ha":430,"x_min":0,"x_max":0,"o":""},"7":{"ha":601,"x_min":0,"x_max":0,"o":""},"8":{"ha":587,"x_min":0,"x_max":0,"o":""},"9":{"ha":616,"x_min":0,"x_max":0,"o":""},"\u0000":{"ha":0,"x_min":0,"x_max":0,"o":""}," ":{"ha":475,"x_min":0,"x_max":0,"o":""},"!":{"ha":392,"x_min":0,"x_max":0,"o":""},"\"":{"ha":171,"x_min":0,"x_max":0,"o":""},"#":{"ha":1014,"x_min":0,"x_max":0,"o":""},"$":{"ha":567,"x_min":0,"x_max":0,"o":""},"%":{"ha":867,"x_min":0,"x_max":0,"o":""},"&":{"ha":567,"x_min":0,"x_max":0,"o":""},"'":{"ha":68,"x_min":0,"x_max":0,"o":"m 23 893 b 1 779 20 854 12 816 b 0 774 0 777 0 776 b 34 739 0 759 21 739 b 44 747 39 739 42 741 b 68 871 56 787 64 829 l 68 871 b 33 905 68 886 47 905 b 23 893 28 905 24 901 z "},"(":{"ha":295,"x_min":0,"x_max":0,"o":""},")":{"ha":294,"x_min":0,"x_max":0,"o":""},"*":{"ha":252,"x_min":0,"x_max":0,"o":""},"+":{"ha":473,"x_min":0,"x_max":0,"o":""},",":{"ha":155,"x_min":0,"x_max":0,"o":"m 109 176 b 122 235 118 197 122 217 b 101 297 122 267 111 293 b 92 299 98 298 95 299 b 56 281 78 299 61 291 b 56 276 56 279 56 277 b 56 271 56 274 56 273 b 70 219 65 255 70 237 b 60 176 70 204 66 189 b 35 141 50 154 39 151 b 34 134 35 138 34 136 b 41 125 34 130 37 127 b 52 122 45 123 48 122 b 109 176 76 122 98 153 z "},"-":{"ha":370,"x_min":0,"x_max":0,"o":""},".":{"ha":134,"x_min":0,"x_max":0,"o":"m 56 282 b 35 222 47 262 40 243 b 34 217 34 220 34 218 b 50 190 34 206 41 196 b 68 183 54 187 62 183 b 78 191 73 183 77 185 b 98 250 83 211 90 231 b 100 256 99 252 100 254 b 66 290 100 271 80 290 b 56 282 62 290 58 288 z "},"/":{"ha":812,"x_min":0,"x_max":0,"o":""},":":{"ha":161,"x_min":0,"x_max":0,"o":""},";":{"ha":190,"x_min":0,"x_max":0,"o":""},"<":{"ha":579,"x_min":0,"x_max":0,"o":""},"=":{"ha":500,"x_min":0,"x_max":0,"o":""},">":{"ha":579,"x_min":0,"x_max":0,"o":""},"?":{"ha":460,"x_min":0,"x_max":0,"o":""},"@":{"ha":917,"x_min":0,"x_max":0,"o":""},"A":{"ha":1221,"x_min":0,"x_max":0,"o":"m 1341 1205 b 1308 1238 1341 1219 1322 1238 b 895 592 1308 1238 1053 824 b 807 534 874 562 843 541 b 0 -31 293 435 0 162 b 153 -172 0 -115 62 -172 b 878 473 396 -172 722 254 b 930 506 890 491 909 503 b 988 513 950 509 969 511 l 992 513 b 1031 475 1014 513 1031 496 b 1030 468 1031 473 1031 471 b 984 5 1000 316 984 160 b 1004 -295 984 -96 991 -196 b 1038 -323 1006 -309 1025 -323 b 1048 -311 1044 -323 1048 -319 b 1029 -19 1048 -311 1029 -181 b 1089 513 1029 159 1050 338 b 1102 524 1090 519 1096 524 b 1299 543 1290 537 1299 520 b 1267 576 1299 558 1282 576 b 1122 572 1218 576 1168 574 b 1107 585 1114 572 1107 578 b 1107 589 1107 587 1107 587 b 1341 1205 1194 925 1341 1205 z m 127 -127 b 45 -44 80 -126 45 -90 l 45 -38 b 786 479 61 217 486 412 b 789 480 787 479 788 480 b 802 467 797 480 802 473 b 800 458 802 464 802 461 b 131 -127 654 260 350 -127 z m 952 580 b 1081 774 996 644 1038 709 b 1092 781 1084 779 1088 781 b 1105 767 1099 781 1105 775 b 1105 763 1105 766 1105 764 b 1054 577 1086 701 1068 639 b 1042 566 1053 571 1047 567 b 964 559 1016 564 990 562 l 963 559 b 949 572 955 559 949 565 b 952 580 949 574 950 577 z "},"B":{"ha":1254,"x_min":0,"x_max":0,"o":"m 1169 284 b 734 625 1169 511 960 611 b 721 639 726 626 721 633 b 728 650 721 644 723 648 b 1101 1079 960 782 1101 955 b 840 1238 1101 1172 1022 1238 b 0 725 429 1238 0 929 b 59 623 0 668 39 623 b 71 635 66 623 71 628 b 45 703 71 656 45 659 b 857 1193 45 882 450 1193 b 1041 1088 989 1193 1041 1151 b 541 618 1041 940 741 678 b 536 618 539 618 538 618 b 523 631 529 618 523 624 b 524 635 523 633 523 634 b 641 980 568 773 641 980 b 607 1015 641 995 621 1015 b 483 674 595 1015 522 793 b 392 580 469 631 435 596 b 363 561 376 574 363 567 b 397 526 363 544 380 526 b 415 529 399 526 407 528 b 418 530 416 529 418 530 b 431 517 426 530 431 524 b 431 512 431 515 431 513 b 266 -73 397 399 266 -41 b 300 -106 266 -90 284 -106 b 466 455 323 -106 303 -69 b 607 574 486 519 541 566 b 709 581 640 578 674 581 b 1106 309 905 581 1106 508 b 416 -279 1106 39 790 -279 b 124 -50 254 -279 124 -200 b 237 187 124 79 237 187 b 204 221 237 201 218 221 b 79 -29 190 221 79 106 b 435 -325 79 -181 213 -325 b 1169 284 819 -325 1169 -3 z "},"C":{"ha":1136,"x_min":0,"x_max":0,"o":"m 1196 337 b 1163 370 1196 351 1178 370 b 212 -288 1140 370 503 -288 b 62 -125 106 -288 62 -225 b 946 1179 62 256 709 1179 b 1017 1035 1010 1179 1017 1099 b 962 766 1017 949 991 839 b 962 760 962 764 962 762 b 995 726 962 745 981 726 b 1062 1021 1017 726 1062 904 b 923 1224 1062 1123 1024 1224 b 0 -112 680 1224 0 318 b 231 -334 0 -246 66 -334 b 1196 337 500 -334 1196 334 z "},"D":{"ha":1242,"x_min":0,"x_max":0,"o":"m 861 1236 b 0 616 475 1236 0 878 b 40 529 0 585 7 529 b 53 541 47 529 53 534 b 45 595 53 541 45 570 b 886 1191 45 829 494 1191 b 1181 860 1095 1191 1181 1052 b 277 -284 1181 425 741 -284 b 82 -138 168 -284 82 -248 b 406 262 82 -18 189 157 b 412 263 408 263 410 263 b 426 250 420 263 426 257 b 425 246 426 249 426 248 b 359 -12 388 117 359 -6 b 393 -46 359 -29 377 -46 b 479 250 412 -46 396 -24 b 544 314 488 281 513 305 b 625 340 614 334 625 326 b 592 375 625 357 609 375 b 565 370 588 375 578 373 b 559 370 563 370 561 370 b 529 400 543 370 529 383 b 530 410 529 403 529 406 b 705 846 612 648 705 846 b 671 880 705 861 685 880 b 487 438 646 880 543 598 b 366 302 467 378 423 330 b 37 -117 141 191 37 6 b 300 -329 37 -254 152 -329 b 1242 845 775 -329 1242 382 b 861 1236 1242 1069 1133 1236 z "},"E":{"ha":1384,"x_min":0,"x_max":0,"o":"m 1457 336 b 1424 370 1457 350 1439 370 b 258 -256 1424 370 730 -256 b 62 -127 119 -256 62 -203 b 669 401 62 47 366 345 b 844 455 691 404 844 431 b 811 490 844 469 826 490 b 555 440 811 490 644 440 b 377 549 430 440 377 484 b 1202 1110 377 738 825 1110 b 1288 1068 1269 1110 1288 1097 b 1161 878 1288 984 1161 878 b 1195 845 1161 864 1180 845 b 1333 1048 1217 845 1333 958 b 1180 1156 1333 1122 1263 1156 b 322 560 776 1156 322 770 b 469 405 322 475 386 425 b 479 392 476 404 479 397 b 472 379 479 387 477 382 b 0 -123 181 241 0 28 b 280 -301 0 -227 85 -301 b 1457 336 768 -301 1457 332 z "},"F":{"ha":983,"x_min":0,"x_max":0,"o":"m 1490 1072 b 1459 1105 1490 1085 1473 1105 b 0 831 1318 1105 0 972 b 390 380 0 768 341 625 b 387 368 389 376 388 372 b 374 357 386 362 380 357 b 209 363 283 357 209 363 b 198 350 201 363 198 357 b 359 311 198 311 248 313 b 372 298 366 311 372 306 b 372 295 372 297 372 296 b 314 -207 331 90 314 -102 b 347 -240 314 -223 332 -240 b 359 -229 353 -240 359 -237 b 423 300 362 -51 386 126 b 436 311 425 307 430 311 b 633 323 502 312 568 315 l 634 323 b 648 309 642 323 648 317 l 648 307 b 637 202 641 273 637 237 b 670 161 637 172 659 161 b 682 174 680 161 682 168 l 682 179 b 694 290 682 216 686 253 b 746 340 700 315 720 335 b 944 467 831 358 944 395 b 846 549 944 505 907 549 b 669 383 759 549 700 467 b 658 374 667 378 663 375 b 454 359 592 365 520 360 l 452 359 b 439 371 445 359 439 364 b 440 375 439 372 439 374 b 654 939 478 534 557 800 b 718 978 669 960 692 975 b 1490 1072 1114 1029 1490 1050 z m 868 503 b 899 488 896 503 899 496 b 757 395 899 443 816 410 b 753 394 755 394 754 394 b 740 408 746 394 740 400 b 742 414 740 410 741 412 b 868 503 781 480 830 503 z m 391 482 b 69 799 313 623 165 724 b 64 810 66 802 64 806 b 70 821 64 814 66 819 b 576 958 180 893 432 937 l 577 958 b 591 945 585 958 591 951 b 589 938 591 942 591 940 b 416 485 516 814 454 627 b 404 475 414 479 409 475 b 391 482 399 475 394 477 z "},"G":{"ha":1070,"x_min":0,"x_max":0,"o":"m 1016 441 b 984 474 1016 455 998 474 l 983 474 b 983 475 983 475 983 475 b 975 472 980 475 977 473 b 621 376 863 419 745 376 b 541 382 580 376 541 382 b 529 372 532 382 529 378 b 556 338 529 359 543 340 b 646 332 586 334 616 332 b 907 385 739 332 822 352 b 912 386 909 385 910 386 b 925 372 919 386 925 380 b 924 366 925 370 925 368 b 305 -219 795 106 588 -219 b 66 93 135 -219 66 -87 b 719 1111 66 486 394 1111 b 920 835 866 1111 920 981 b 905 683 920 760 905 683 b 938 652 905 669 924 652 b 949 663 943 652 948 655 b 964 815 958 711 964 763 b 694 1156 964 1030 849 1156 b 0 109 359 1156 0 530 b 326 -265 0 -104 92 -265 b 850 123 550 -265 726 -73 b 861 129 852 127 857 129 b 875 116 868 129 875 123 l 875 113 b 854 -148 861 26 854 -61 b 858 -258 854 -184 855 -221 b 890 -292 859 -275 875 -292 b 903 -281 897 -292 903 -289 b 899 -172 903 -281 899 -232 b 1016 441 899 172 1016 441 z "},"H":{"ha":1255,"x_min":0,"x_max":0,"o":"m 1178 1073 b 1144 1105 1178 1087 1157 1105 b 1133 1094 1138 1105 1134 1102 b 1089 642 1115 944 1100 793 b 1082 519 1086 602 1084 560 b 1028 458 1080 489 1058 464 b 681 395 912 437 797 416 l 679 395 b 665 409 671 395 665 401 b 686 831 669 550 675 690 b 715 1124 699 1010 715 1124 b 682 1156 715 1139 694 1156 b 670 1145 675 1156 671 1153 b 627 607 646 967 634 787 b 621 445 624 553 622 499 b 557 372 619 409 593 378 b 509 363 540 368 524 366 b 490 361 503 361 496 361 b 414 395 461 361 433 373 b 184 506 354 463 277 506 b 0 368 73 506 0 434 b 163 255 0 314 53 255 b 387 289 216 255 304 273 b 401 290 392 290 397 290 b 466 249 429 290 454 274 b 602 -273 534 96 568 -118 b 633 -302 604 -288 620 -302 b 646 -290 640 -302 646 -298 b 661 260 653 -107 656 77 b 662 298 661 273 661 286 b 705 349 663 323 681 345 b 1061 415 839 374 949 395 l 1063 415 b 1077 401 1071 415 1077 409 b 1074 255 1076 353 1074 304 b 1076 159 1074 223 1075 191 b 1094 -85 1078 77 1083 -4 b 1127 -113 1095 -98 1115 -113 b 1138 -101 1133 -113 1138 -109 b 1119 224 1138 -101 1119 24 b 1123 416 1119 286 1120 353 b 1134 428 1123 422 1128 427 b 1171 435 1146 431 1158 433 b 1177 444 1176 435 1177 439 b 1144 479 1177 461 1162 479 l 1140 479 b 1126 492 1133 479 1126 485 l 1126 494 b 1152 828 1132 605 1141 717 b 1178 1073 1163 952 1178 1073 z m 140 301 b 45 349 94 301 45 309 b 208 459 45 399 110 459 b 399 362 288 459 351 423 b 402 354 401 359 402 357 b 391 340 402 347 398 341 b 140 301 264 315 193 301 z m 610 13 b 596 -1 609 4 603 -1 b 583 10 590 -1 585 3 b 485 290 557 118 527 211 b 484 296 484 292 484 294 b 494 310 484 302 488 309 b 601 330 530 317 566 323 b 604 330 602 330 603 330 b 616 317 610 330 616 324 l 616 316 b 610 33 614 222 612 127 z "},"I":{"ha":460,"x_min":0,"x_max":0,"o":"m 614 1107 b 584 1141 614 1121 598 1141 b 288 1054 563 1141 288 1084 b 320 1020 288 1040 305 1020 b 388 1043 320 1020 357 1033 b 393 1044 389 1044 391 1044 b 406 1030 400 1044 406 1038 b 405 1025 406 1029 406 1027 b 115 -205 224 549 121 -112 b 103 -217 115 -211 110 -216 b 0 -241 1 -233 0 -230 l 0 -242 b 33 -277 0 -258 16 -277 b 223 -239 36 -277 223 -253 b 190 -204 223 -222 208 -204 b 183 -205 189 -204 188 -204 l 181 -205 b 168 -191 174 -205 168 -199 l 168 -189 b 479 1065 224 211 328 696 b 489 1073 481 1069 484 1072 b 614 1107 600 1100 614 1089 z "},"J":{"ha":745,"x_min":0,"x_max":0,"o":"m 787 341 b 755 376 787 355 769 376 b 575 357 736 376 659 370 l 573 357 b 559 368 566 357 560 361 b 359 1012 524 579 447 821 b 357 1017 358 1014 357 1015 b 367 1031 357 1023 361 1029 b 567 1101 560 1093 567 1093 l 567 1103 b 533 1137 567 1116 549 1137 b 0 958 530 1137 0 972 b 34 924 0 945 19 924 l 35 924 b 307 1011 37 924 49 928 b 311 1012 308 1012 309 1012 b 323 1004 316 1012 321 1008 b 519 360 411 811 485 574 l 519 359 b 508 345 519 353 514 347 b 4 -37 279 300 4 193 b 280 -309 4 -172 115 -309 b 583 118 506 -309 583 -111 b 570 294 583 176 578 235 l 570 296 b 581 309 570 302 575 307 b 787 341 764 340 787 321 z m 538 142 b 258 -263 538 -74 472 -263 b 49 -61 122 -263 49 -161 b 513 296 49 150 304 250 l 515 296 b 529 283 522 296 528 291 b 538 142 534 237 538 189 z "},"K":{"ha":1148,"x_min":0,"x_max":0,"o":"m 1209 333 b 1175 366 1209 347 1190 366 b 1166 363 1172 366 1169 365 b 699 189 1020 262 873 189 b 401 219 614 189 505 210 b 376 246 387 220 376 233 l 376 250 b 388 319 380 275 384 296 b 392 326 389 322 390 324 b 1069 1047 527 456 1069 1037 b 1037 1081 1069 1061 1050 1081 b 439 451 1023 1081 694 711 b 430 447 437 448 433 447 b 416 460 423 447 416 452 l 416 463 b 626 1056 498 834 626 1056 b 593 1088 626 1070 607 1088 b 347 362 571 1088 424 793 b 342 355 346 359 345 357 b 166 205 287 302 229 250 b 0 95 63 176 0 109 b 32 61 0 80 18 61 b 196 159 42 61 127 111 b 284 175 224 168 254 172 l 286 175 b 313 147 301 175 313 163 l 313 144 b 276 -222 291 -30 276 -219 b 311 -254 276 -236 298 -254 b 361 146 334 -254 313 -216 b 394 175 363 163 378 175 l 397 175 b 720 144 513 168 626 144 b 1209 333 977 144 1209 322 z m 322 262 b 325 262 323 262 323 262 b 329 258 327 262 329 261 l 329 258 l 324 225 b 321 222 324 224 323 222 l 287 222 b 283 227 285 222 283 224 b 285 229 283 227 284 229 z "},"L":{"ha":781,"x_min":0,"x_max":0,"o":"m 1050 1029 b 869 1253 1050 1171 964 1253 b 276 375 665 1253 389 890 b 274 369 275 374 274 372 l 275 369 b 217 -180 236 194 217 11 l 217 -180 b 180 -224 217 -202 201 -220 b 7 -257 125 -233 69 -243 b 0 -267 1 -258 0 -262 b 33 -302 0 -283 16 -302 b 736 -225 33 -302 347 -225 b 907 -229 829 -225 907 -229 b 918 -217 915 -229 918 -223 b 776 -180 918 -182 880 -180 l 718 -180 b 307 -205 581 -180 444 -188 l 302 -205 b 262 -166 281 -205 262 -189 l 262 -165 b 309 293 264 -12 279 142 b 358 343 313 318 333 338 b 1050 1029 829 444 1050 792 z m 891 1207 b 1005 1048 971 1207 1005 1139 b 363 395 1005 824 795 500 b 358 395 361 395 360 395 b 337 416 347 395 337 405 b 338 422 337 418 337 420 b 891 1207 448 846 694 1207 z "},"M":{"ha":1440,"x_min":0,"x_max":0,"o":"m 1483 338 b 1459 361 1483 353 1474 361 b 954 -193 1447 361 1152 -193 b 890 -98 898 -193 890 -157 b 1446 1078 890 311 1446 1077 l 1446 1080 b 1413 1113 1445 1094 1427 1113 b 451 123 1406 1113 785 768 b 439 116 448 119 444 116 b 425 129 432 116 425 121 l 425 130 b 794 905 448 419 609 681 b 798 913 797 907 798 909 b 765 949 798 927 780 949 b 89 -7 761 949 406 776 b 76 -16 86 -14 81 -16 b 63 -3 70 -16 63 -12 l 63 -1 b 99 237 72 79 84 158 b 233 719 130 401 175 562 b 342 980 265 808 302 895 b 344 986 343 982 344 984 b 310 1019 344 1001 324 1019 b 121 540 289 1019 176 734 b 21 48 75 379 41 214 b 0 -238 5 -79 0 -208 b 37 -271 0 -252 16 -271 b 47 -264 41 -271 45 -269 b 520 656 159 43 293 387 b 530 661 523 659 527 661 b 545 647 538 661 545 654 b 543 640 545 645 544 642 b 374 70 412 406 374 195 b 385 -28 374 26 378 -7 b 418 -56 387 -39 405 -56 b 428 -48 422 -56 426 -53 b 1254 945 594 345 903 694 b 1262 948 1257 947 1259 948 b 1275 935 1269 948 1275 942 b 1273 927 1275 932 1274 930 b 846 -76 1089 645 846 165 b 975 -239 846 -168 888 -239 b 1483 338 1182 -239 1483 323 z "},"N":{"ha":1065,"x_min":0,"x_max":0,"o":"m 1105 338 b 1082 361 1105 353 1096 361 b 578 -196 1079 361 759 -196 b 513 -74 522 -196 513 -131 b 986 1101 513 363 986 1099 b 954 1135 986 1114 966 1135 b 79 108 935 1135 378 821 b 67 100 77 102 72 100 b 54 113 60 100 54 104 l 54 115 b 395 1062 107 570 395 1062 b 361 1095 395 1076 376 1095 b 0 -10 350 1095 0 508 b 3 -104 0 -41 1 -73 b 37 -139 5 -124 24 -139 b 48 -129 44 -139 47 -134 b 824 987 187 321 473 727 b 832 989 827 989 829 989 b 846 976 840 989 846 983 b 844 969 846 974 845 972 b 468 -54 678 683 468 220 b 595 -241 468 -192 535 -241 b 1105 338 751 -241 1105 316 z "},"O":{"ha":983,"x_min":0,"x_max":0,"o":"m 539 1137 b 0 360 184 1137 0 711 b 83 -12 0 235 21 98 b 97 -56 92 -25 96 -40 b 309 -296 105 -196 177 -296 b 912 677 628 -296 912 258 b 539 1137 912 932 807 1137 z m 285 -250 b 149 -132 203 -250 164 -205 l 149 -130 b 162 -117 149 -122 155 -117 b 171 -120 165 -117 168 -117 b 243 -166 198 -143 230 -166 b 256 -153 250 -166 256 -161 b 231 -122 256 -139 246 -132 b 149 27 179 -90 149 -33 b 152 59 149 38 150 48 b 455 577 186 252 302 471 b 459 587 458 580 459 583 b 425 619 459 600 441 619 b 108 88 391 619 164 406 b 94 77 106 81 100 77 b 81 86 89 77 83 80 b 45 338 55 166 45 256 b 560 1091 45 671 220 1091 b 857 662 768 1091 857 900 b 285 -250 857 270 617 -250 z "},"P":{"ha":1780,"x_min":0,"x_max":0,"o":"m 1343 1226 b 0 260 530 1226 0 644 b 151 -14 0 72 131 -14 b 163 -1 159 -14 163 -7 b 122 43 163 18 141 28 b 45 235 122 43 45 99 b 1360 1181 45 614 576 1181 b 1802 898 1670 1181 1802 1060 b 804 74 1802 605 1374 176 b 798 73 802 73 800 73 b 763 109 779 73 763 90 b 766 123 763 113 764 118 b 1003 614 851 332 1003 614 b 970 647 1003 629 983 647 b 708 117 953 647 792 330 b 621 55 694 81 660 56 b 586 54 609 54 597 54 b 478 60 526 54 478 60 b 469 47 471 60 469 54 b 500 14 469 31 484 16 b 609 9 537 10 573 9 l 610 9 b 654 -35 635 9 654 -12 b 652 -47 654 -39 654 -43 b 595 -303 614 -182 595 -301 b 628 -335 595 -317 615 -335 b 702 -58 652 -335 635 -277 b 795 22 715 -15 751 16 b 1860 903 1386 110 1860 577 b 1343 1226 1860 1087 1709 1226 z "},"Q":{"ha":949,"x_min":0,"x_max":0,"o":"m 551 1177 b 1 359 171 1177 1 697 b 93 39 1 255 18 113 b 106 7 102 31 106 18 l 106 6 b 169 -193 106 -68 121 -142 b 172 -203 172 -196 172 -199 b 161 -216 172 -209 168 -215 b 7 -260 109 -224 57 -239 b 0 -271 2 -262 0 -266 b 33 -305 0 -285 18 -305 b 271 -254 33 -305 145 -254 b 718 -336 454 -254 570 -336 b 910 -262 838 -336 910 -277 b 878 -228 910 -248 892 -228 b 868 -232 874 -228 871 -229 b 702 -290 821 -275 762 -290 b 467 -243 621 -290 555 -266 b 456 -229 460 -241 456 -235 b 464 -218 456 -224 459 -220 b 922 715 722 -85 922 362 b 551 1177 922 971 817 1177 z m 296 -210 b 152 20 161 -210 152 -94 l 152 20 b 465 617 152 168 267 479 b 469 627 468 619 469 623 b 435 659 469 640 450 659 b 114 106 400 659 163 437 b 100 94 113 98 106 94 b 88 102 96 94 91 96 b 46 340 70 138 46 211 b 571 1131 46 676 217 1131 b 861 731 777 1131 861 956 b 296 -210 861 336 601 -210 z "},"R":{"ha":1540,"x_min":0,"x_max":0,"o":"m 1586 337 b 1567 361 1586 352 1581 361 b 1558 357 1564 361 1560 359 b 1031 5 1428 205 1230 5 b 751 134 921 5 838 68 b 746 145 748 137 746 141 b 757 158 746 151 750 157 b 1328 833 1103 245 1328 570 b 900 1194 1328 1031 1200 1194 b 0 444 405 1194 0 747 b 129 246 0 319 91 246 b 141 259 137 246 141 251 b 119 289 141 271 130 284 b 45 422 63 313 45 361 b 928 1147 45 699 423 1147 b 1274 841 1169 1147 1274 1011 b 689 194 1274 589 1045 264 b 682 193 686 193 684 193 b 662 199 675 193 668 195 l 661 199 b 644 231 650 206 644 218 b 645 239 644 233 644 236 b 739 762 701 505 739 752 b 705 794 739 777 718 794 b 602 275 680 794 705 751 b 563 243 599 256 582 243 b 555 244 561 243 558 243 b 517 248 543 247 530 248 b 418 206 481 248 418 241 b 555 136 418 156 497 139 b 568 123 562 136 568 130 b 568 119 568 121 568 121 b 467 -269 515 -111 467 -269 b 502 -304 467 -284 488 -304 b 621 127 521 -304 606 61 b 633 138 622 134 627 138 b 646 139 637 138 642 139 b 657 140 650 140 653 140 b 715 120 677 140 698 133 b 1053 -40 814 45 913 -40 b 1586 337 1313 -40 1586 328 z m 534 202 b 572 199 546 202 559 201 b 583 185 578 197 583 191 l 583 182 b 558 182 575 182 567 182 b 533 182 550 182 542 182 b 524 192 527 182 524 187 b 534 202 524 197 527 202 z "},"S":{"ha":1271,"x_min":0,"x_max":0,"o":"m 1303 332 b 1308 339 1306 334 1308 336 b 1283 356 1308 347 1293 356 b 1067 203 1269 356 1132 252 b 1059 199 1064 201 1061 199 b 1044 213 1051 199 1044 205 b 1045 216 1044 214 1045 215 b 1053 299 1049 243 1053 275 b 881 512 1053 420 999 512 b 87 250 692 512 223 250 b 45 271 46 250 45 256 b 1196 1142 45 461 825 1142 b 1218 1133 1213 1142 1218 1139 b 1175 1077 1218 1117 1175 1087 b 1208 1044 1175 1063 1194 1044 b 1262 1118 1222 1044 1262 1083 b 1170 1188 1262 1150 1233 1188 b 0 291 808 1188 0 512 b 105 204 0 235 50 204 b 905 466 254 204 715 466 b 1008 327 987 466 1008 409 b 992 195 1008 282 1002 238 b 946 121 985 165 969 140 b 652 -269 829 25 652 -137 b 711 -338 652 -307 675 -338 b 1010 75 831 -338 958 -79 b 1054 137 1019 100 1034 121 b 1303 332 1140 205 1298 329 z m 699 -270 b 929 35 716 -163 843 -41 b 933 36 930 36 932 36 b 939 31 936 36 939 34 b 938 28 939 30 938 29 b 718 -285 913 -37 815 -240 b 713 -286 716 -286 715 -286 b 699 -273 705 -286 699 -280 z "},"T":{"ha":923,"x_min":0,"x_max":0,"o":"m 1992 1137 b 1955 1172 1990 1150 1969 1172 b 917 1089 1948 1172 1427 1144 b 909 1090 914 1090 912 1090 b 902 1088 907 1090 904 1089 b -172 802 513 1045 -172 963 b -171 793 -172 800 -172 796 b -78 703 -165 754 -122 703 b 691 -258 420 703 612 239 b 730 -291 693 -273 717 -291 b 740 -275 739 -291 740 -281 l 740 -272 b 733 -104 739 -261 733 -201 b 920 979 733 119 760 536 b 1015 1050 935 1019 970 1046 b 1992 1137 1317 1080 1992 1137 z m 662 61 b -113 752 536 458 302 749 b -123 774 -118 755 -121 766 b -123 781 -123 777 -123 779 b 857 1034 -123 919 662 1011 l 858 1034 b 873 1020 866 1034 872 1027 l 873 1018 b 873 1014 873 1017 873 1015 b 689 60 764 716 702 397 b 677 50 688 54 683 50 b 662 61 671 50 665 54 z "},"U":{"ha":1190,"x_min":0,"x_max":0,"o":"m 1235 1103 b 1201 1137 1234 1116 1217 1137 b 215 -201 1120 1137 616 -201 b 98 43 129 -201 102 -43 b 96 108 96 64 96 86 b 451 1091 96 623 451 1091 b 416 1124 450 1106 429 1124 b 29 134 393 1124 29 625 b 31 77 29 115 29 96 b 240 -248 39 -61 88 -248 b 878 427 457 -248 732 176 b 888 433 880 431 884 433 b 903 419 895 433 903 427 b 903 415 903 418 903 416 b 816 -168 839 176 816 -43 b 817 -214 816 -185 817 -201 b 852 -247 818 -229 837 -247 b 863 -237 858 -247 863 -244 l 863 -216 b 1235 1103 863 448 1235 1103 z "},"V":{"ha":995,"x_min":0,"x_max":0,"o":"m 995 834 b 902 1141 995 984 943 1141 b 889 1128 893 1141 889 1135 b 892 1118 889 1124 890 1121 b 949 856 936 1038 949 947 b 437 -237 949 399 591 -237 b 336 -22 347 -237 336 -133 b 428 828 336 235 428 586 b 288 1063 428 941 401 1063 b 0 578 141 1063 0 820 b 140 191 0 362 109 191 b 152 202 146 191 152 194 b 146 219 152 208 149 215 b 45 557 78 319 45 437 b 311 1018 45 804 190 1018 b 382 850 375 1018 382 938 b 291 -1 382 607 291 259 b 457 -283 291 -136 325 -283 b 995 834 644 -283 995 391 z "},"W":{"ha":1108,"x_min":0,"x_max":0,"o":"m 1086 1138 b 1076 1141 1083 1139 1080 1141 b 1063 1129 1069 1141 1063 1137 l 1063 1120 b 772 121 1063 437 847 121 b 703 330 719 121 703 214 b 746 766 703 517 746 764 b 712 799 746 779 726 799 b 125 -237 709 799 302 -237 b 45 -18 45 -237 45 -90 b 291 1052 45 498 291 1052 b 258 1084 291 1065 273 1084 b 0 8 208 1084 0 385 b 144 -282 0 -114 0 -282 b 635 491 293 -282 532 248 b 648 499 638 496 643 499 b 661 486 654 499 661 494 l 661 484 b 654 348 657 441 654 394 b 790 76 654 209 681 76 b 1108 1097 1018 76 1108 804 l 1108 1103 b 1086 1138 1108 1112 1106 1128 z "},"X":{"ha":1085,"x_min":0,"x_max":0,"o":"m 1126 345 b 1105 368 1126 359 1119 368 b 631 -173 1084 368 867 -173 b 403 262 466 -173 416 96 b 406 271 403 266 404 269 b 964 964 640 576 964 964 b 931 998 964 979 945 998 b 415 373 909 998 507 490 b 408 370 413 370 410 370 b 399 378 403 370 399 373 l 399 379 b 457 989 399 636 457 879 b 373 1109 457 1079 410 1109 b 132 522 267 1109 132 789 b 146 355 132 467 136 412 b 178 327 149 340 166 327 b 191 340 186 327 191 332 b 176 500 191 340 176 412 b 396 1063 176 781 317 1063 b 412 1018 411 1063 412 1036 l 412 1010 b 354 400 412 899 354 661 b 357 303 354 368 355 335 b 354 294 357 300 356 296 b 0 -204 155 35 0 -190 b 33 -236 0 -218 19 -236 b 45 -229 38 -236 42 -234 b 345 192 137 -83 241 55 b 355 197 347 195 351 197 b 369 186 361 197 368 193 b 655 -218 397 1 453 -218 b 1126 345 879 -218 1126 323 z "},"Y":{"ha":745,"x_min":0,"x_max":0,"o":"m 1072 1086 b 1033 1124 1072 1105 1044 1124 b 891 941 1020 1124 899 951 b 128 256 759 776 342 256 b 45 359 64 256 45 287 b 342 1009 45 538 203 846 b 382 1058 378 1051 382 1048 b 349 1092 382 1072 363 1092 b 0 381 309 1092 0 650 b 144 210 0 266 68 210 b 610 528 283 210 480 392 b 619 532 612 531 616 532 b 633 518 626 532 633 526 b 631 512 633 516 633 514 b 310 -248 426 122 310 -243 b 344 -283 310 -264 331 -283 b 928 900 344 -283 564 376 b 1072 1086 985 970 1072 1078 z "},"Z":{"ha":848,"x_min":0,"x_max":0,"o":"m 1420 -61 b 1008 50 1420 -5 1182 50 b 126 -153 720 50 398 -44 b 121 -153 124 -153 123 -153 b 108 -140 114 -153 108 -147 b 110 -133 108 -138 109 -135 b 1177 971 374 287 757 713 b 1420 1107 1265 1009 1420 1092 b 1388 1142 1420 1122 1401 1142 b 1143 1014 1379 1142 1258 1084 b 159 691 701 828 159 961 b 193 656 159 676 179 656 b 203 664 197 656 201 659 b 918 890 286 901 538 809 b 921 890 919 890 920 890 b 935 876 929 890 935 884 b 929 866 935 873 932 869 b 0 -215 393 453 0 -180 b 33 -248 0 -230 20 -248 b 1023 3 33 -248 577 3 b 1397 -71 1152 3 1282 -14 b 1408 -73 1400 -73 1404 -73 b 1420 -61 1415 -73 1420 -69 z "},"[":{"ha":350,"x_min":0,"x_max":0,"o":""},"\\":{"ha":484,"x_min":0,"x_max":0,"o":""},"]":{"ha":386,"x_min":0,"x_max":0,"o":""},"^":{"ha":369,"x_min":0,"x_max":0,"o":""},"_":{"ha":663,"x_min":0,"x_max":0,"o":""},"`":{"ha":132,"x_min":0,"x_max":0,"o":""},"a":{"ha":473,"x_min":0,"x_max":0,"o":"m 506 343 b 488 362 506 358 501 362 b 274 213 476 362 346 213 b 241 269 245 213 241 240 b 290 414 241 351 290 414 b 258 448 290 429 271 448 b 244 439 253 448 251 447 b 231 433 241 435 236 433 b 220 437 227 433 224 435 b 165 453 206 446 186 453 b -37 245 66 453 -37 325 b 26 176 -37 199 -3 176 b 173 278 68 176 130 233 b 182 282 176 281 179 282 b 197 271 189 282 195 277 b 293 168 204 211 243 168 b 503 334 365 168 456 283 b 506 343 505 336 506 340 z m 7 222 b 192 409 7 288 101 409 l 193 409 b 203 397 199 409 203 404 b 201 390 203 395 203 392 b 7 222 153 336 52 223 z "},"b":{"ha":614,"x_min":0,"x_max":0,"o":"m 647 327 b 615 349 647 340 631 349 b 395 266 610 349 506 334 b 389 264 393 264 391 264 b 375 274 382 264 377 268 b 263 374 361 332 323 374 b 62 252 209 374 129 328 b 53 247 60 248 56 247 b 39 261 45 247 39 252 l 39 262 l 43 295 b 58 324 44 306 50 317 b 536 1143 349 611 536 960 b 450 1261 536 1223 492 1261 b -20 98 234 1261 -20 562 b 12 64 -20 82 -3 64 b 24 78 22 64 24 70 b 31 104 25 87 27 96 b 284 330 100 257 237 330 b 337 251 326 330 336 294 l 337 249 b 319 212 337 235 330 221 b 35 -204 129 64 35 -138 b 125 -296 35 -255 77 -296 b 380 165 244 -296 363 -17 b 406 208 382 183 391 199 b 647 327 508 275 647 327 z m 472 1215 b 491 1166 490 1215 491 1183 b 91 437 491 1027 366 732 b 81 433 88 434 85 433 b 68 446 75 433 68 439 l 68 449 b 472 1215 150 867 343 1215 z m 106 -251 b 80 -227 87 -251 80 -246 b 301 125 80 -172 155 -9 b 311 130 304 128 307 130 b 323 116 317 130 323 124 l 323 113 b 106 -251 289 -45 189 -251 z "},"c":{"ha":411,"x_min":0,"x_max":0,"o":"m 439 331 b 439 343 439 336 439 340 b 428 355 439 351 437 355 b 103 179 427 355 260 179 b 30 243 45 179 30 198 b 180 453 30 334 114 453 b 205 427 198 453 205 444 b 197 395 205 409 197 404 b 231 363 197 381 216 363 b 251 404 245 363 251 390 b 159 498 251 447 212 498 b -16 265 71 498 -16 363 b 126 134 -16 189 34 134 b 439 331 286 134 439 312 z "},"d":{"ha":622,"x_min":0,"x_max":0,"o":"m 649 331 l 649 337 b 636 354 649 348 648 354 b 368 95 619 354 498 95 b 285 318 298 95 285 233 b 299 362 285 334 290 349 b 627 1120 460 574 627 956 b 557 1221 627 1192 589 1221 b 255 526 458 1221 301 832 b 197 553 239 546 219 553 b -6 311 96 553 -6 412 b 87 208 -6 242 37 208 b 221 275 134 208 183 240 b 230 278 224 277 227 278 b 243 266 237 278 243 273 b 390 49 254 164 292 49 b 649 331 527 49 649 321 z m 481 1064 b 564 1172 533 1158 564 1172 b 574 1176 570 1175 572 1175 l 578 1176 b 581 1160 579 1171 581 1164 b 582 1143 582 1154 582 1148 b 324 492 582 1006 455 698 b 313 486 321 488 317 486 b 299 500 306 486 299 491 l 299 502 b 481 1064 330 709 408 930 z m 68 253 b 38 286 44 253 38 257 b 216 508 38 371 130 508 b 227 507 217 508 226 508 b 250 489 232 499 240 491 b 241 392 245 456 243 425 b 229 363 241 381 237 372 b 68 253 189 317 123 253 z "},"e":{"ha":410,"x_min":0,"x_max":0,"o":"m 438 331 b 432 356 438 347 437 356 b 423 351 429 356 427 355 b 112 210 338 259 180 210 b 37 275 65 210 37 228 l 37 275 b 62 300 37 289 48 300 b 71 299 65 299 68 299 b 233 394 138 299 233 342 b 154 450 233 433 193 450 b -7 299 66 450 -7 389 b 131 164 -7 231 42 164 b 438 331 276 164 438 301 z m 180 397 b 68 346 164 379 123 351 b 63 351 66 346 63 349 b 64 353 63 352 64 353 b 176 405 92 387 134 404 b 180 400 179 405 180 402 b 180 397 180 399 180 398 z "},"f":{"ha":490,"x_min":0,"x_max":0,"o":"m 571 1145 b 471 1259 571 1211 536 1259 b 0 347 193 1259 42 624 b -1 341 -1 345 -1 343 l -1 340 b -22 161 -11 277 -18 218 b -25 153 -24 159 -25 156 b -24 146 -25 151 -24 149 b -30 10 -27 101 -30 56 b 74 -269 -30 -84 -21 -269 b 144 -116 129 -269 144 -170 b 80 83 144 -45 121 25 b 77 92 78 86 77 89 b 90 104 77 98 83 104 b 517 321 277 109 380 189 b 522 339 519 323 522 332 b 510 355 522 347 519 355 b 500 351 507 355 503 353 b 50 150 375 229 254 150 l 38 150 b 25 163 31 150 25 156 l 25 165 b 39 290 28 207 34 249 b 59 330 42 305 48 319 b 571 1145 233 510 571 913 z m 494 1213 l 496 1213 b 526 1168 513 1213 526 1213 b 92 444 526 964 252 620 b 81 439 89 441 85 439 b 68 453 74 439 68 445 l 68 456 b 494 1213 115 688 258 1213 z m 100 -94 b 52 -224 100 -171 71 -224 b 16 -15 22 -224 16 -57 b 18 70 16 14 16 42 b 32 83 18 77 25 83 b 42 77 35 83 39 81 b 100 -94 80 29 100 -33 z "},"g":{"ha":642,"x_min":0,"x_max":0,"o":"m 676 331 b 659 351 676 345 664 351 b 656 351 658 351 657 351 b 492 226 606 308 557 274 b 484 223 489 224 486 223 b 470 237 476 223 470 229 l 470 237 b 477 428 475 301 477 365 b 475 559 477 500 475 531 b 441 593 475 573 456 593 b 347 488 425 593 356 500 b 336 482 344 484 340 482 b 323 490 331 482 326 485 b 242 539 311 517 279 539 b -51 163 94 539 -51 304 b 26 67 -51 98 -10 67 b 408 479 145 67 282 321 b 418 484 410 482 414 484 b 432 471 425 484 432 479 l 432 448 b 420 202 432 366 429 283 b 389 146 418 180 407 160 b -33 -455 205 0 -33 -224 b 72 -582 -33 -541 18 -582 b 455 99 277 -582 415 -162 b 486 152 458 120 469 139 b 676 326 665 289 676 313 z m 5 113 b -6 142 -5 113 -6 126 b 263 494 -6 267 130 494 b 286 483 274 494 286 493 b 304 453 286 471 294 459 b 310 441 308 450 310 446 b 307 434 310 439 309 436 b 5 113 212 300 89 113 z m 50 -536 b 11 -463 29 -536 11 -511 b 376 64 11 -365 89 -175 b 385 68 379 66 382 68 b 398 54 392 68 398 62 l 398 52 b 50 -536 351 -193 218 -536 z "},"h":{"ha":559,"x_min":0,"x_max":0,"o":"m 606 331 l 607 342 b 595 355 607 351 606 355 b 242 -6 581 355 329 -6 b 225 22 231 -6 225 -5 l 225 31 b 338 408 231 140 335 337 l 338 414 b 292 471 338 454 310 471 b 47 203 263 471 118 292 b 37 197 45 199 41 197 b 23 211 30 197 23 203 l 24 213 b 42 294 30 240 36 267 b 56 323 45 304 49 314 b 442 1152 151 441 434 992 l 442 1159 b 387 1233 442 1211 415 1233 b -54 64 191 1233 -48 181 l -54 62 b -22 31 -54 47 -35 31 b -14 35 -19 31 -16 32 b 251 364 46 118 168 271 b 261 369 254 368 258 369 b 275 356 269 369 275 363 b 273 351 274 355 274 353 b 182 54 242 263 186 138 l 182 46 b 263 -52 182 -18 220 -52 b 606 331 360 -52 606 326 z m 398 1178 b 130 539 392 1057 233 727 b 118 532 127 534 122 532 b 104 544 111 532 104 536 l 104 545 b 105 549 104 547 104 547 b 398 1186 161 759 280 1162 z "},"i":{"ha":288,"x_min":0,"x_max":0,"o":"m 307 354 b 27 138 298 354 130 138 b 16 169 16 138 16 155 l 16 177 b 63 353 16 227 31 298 b 65 360 64 355 65 357 b 32 392 65 374 46 392 b -30 199 8 392 -30 275 b 50 92 -30 125 7 92 b 309 328 155 92 304 314 b 315 349 311 338 315 345 b 307 354 315 352 313 354 z m 91 438 b 102 446 96 438 100 440 b 136 521 134 517 136 517 l 136 522 b 102 555 136 536 116 555 b 91 548 98 555 94 553 b 58 473 59 479 58 476 l 58 471 b 91 438 58 457 77 438 z "},"j":{"ha":323,"x_min":0,"x_max":0,"o":"m 349 331 b 351 338 350 334 351 336 b 344 344 351 342 349 344 l 342 344 b 113 158 330 343 216 270 b 104 153 111 155 107 153 b 90 164 98 153 92 157 b 6 438 68 257 39 349 b -24 460 2 449 -12 460 b -35 451 -32 460 -35 458 b 54 143 -35 425 9 346 b 56 122 56 136 56 129 b 37 64 56 101 50 81 b -84 -241 -53 -61 -84 -163 b 32 -409 -84 -350 -21 -409 b 138 -187 114 -409 138 -305 b 119 23 138 -116 129 -39 b 117 39 118 28 117 34 b 144 110 117 65 126 90 b 349 331 285 272 341 305 z m 96 -159 b 12 -363 96 -227 80 -363 b -43 -275 -12 -363 -43 -339 b 58 -3 -43 -201 -4 -96 b 69 4 60 2 64 4 b 82 -8 75 4 81 -1 b 96 -159 90 -58 96 -109 z m -40 538 b -28 551 -31 538 -28 545 b -31 561 -28 555 -29 558 b -87 638 -52 604 -63 638 b -100 625 -96 638 -100 632 b -97 616 -100 622 -99 618 b -40 538 -76 573 -64 538 z "},"k":{"ha":572,"x_min":0,"x_max":0,"o":"m 596 331 b 582 354 596 345 587 353 b 298 185 582 354 490 185 b 147 237 237 185 180 205 b 143 247 144 240 143 243 b 151 259 143 252 146 256 b 304 358 205 286 260 316 b 379 485 343 395 379 450 b 312 549 379 519 345 549 b 68 263 233 549 131 399 b 56 255 66 258 61 255 b 43 268 50 255 43 260 b 39 345 41 294 39 319 l 39 348 b 47 372 39 356 42 365 b 391 1083 177 543 391 876 b 302 1219 391 1183 345 1219 b -7 406 151 1219 -7 808 b 58 112 -7 341 -5 112 b 101 209 71 112 65 123 b 114 218 104 214 109 218 b 123 214 117 218 121 216 b 315 140 174 163 243 140 b 596 331 505 140 596 298 z m 315 1173 b 323 1174 316 1174 318 1174 l 330 1174 l 334 1173 b 345 1103 334 1173 345 1155 b 58 477 345 925 170 637 b 51 474 56 475 53 474 b 41 483 46 474 41 477 l 41 484 b 315 1173 64 844 201 1152 z m 330 503 b 332 499 331 503 332 502 b 166 327 332 481 302 402 l 165 327 b 161 330 163 327 161 328 b 161 332 161 330 161 331 b 330 503 196 389 281 503 z "},"l":{"ha":485,"x_min":0,"x_max":0,"o":"m 498 355 b 111 43 494 350 264 43 b 31 212 40 43 31 139 b 34 273 31 232 32 253 b 65 323 35 294 47 313 b 533 1096 216 418 533 841 b 439 1213 533 1185 479 1213 b -14 226 245 1213 -14 566 b 134 -2 -14 113 26 -2 b 508 331 292 -2 500 315 b 516 357 513 343 516 352 b 512 363 516 361 514 363 b 498 355 509 363 504 360 z m 461 1168 b 488 1117 486 1168 488 1143 b 90 418 488 966 325 624 b 78 414 87 415 82 414 b 59 432 68 414 59 422 b 60 437 59 434 59 435 b 461 1168 129 747 316 1168 z "},"m":{"ha":898,"x_min":0,"x_max":0,"o":"m 928 331 b 920 355 928 345 928 355 b 911 351 917 354 914 353 b 667 211 831 273 711 211 b 634 271 646 211 634 213 b 636 324 634 288 636 306 b 574 420 636 394 602 420 b 401 285 541 420 454 339 b 391 281 398 282 395 281 b 377 294 384 281 377 287 b 378 298 377 296 377 297 b 524 597 422 435 524 597 b 492 629 524 610 506 629 b 47 193 474 629 285 503 b 37 187 44 189 40 187 b 23 201 30 187 23 193 l 23 203 b 139 629 52 414 139 629 b 106 663 139 644 119 663 b -33 81 83 663 -33 316 b 1 46 -33 62 -12 46 b 9 50 5 46 7 47 b 360 461 9 50 178 296 b 369 465 363 464 366 465 b 382 452 376 465 382 459 b 381 446 382 450 382 448 b 299 161 323 320 299 211 b 333 127 299 146 319 127 b 340 130 336 127 338 128 b 568 360 343 132 444 272 b 575 363 570 361 572 363 b 589 349 582 363 589 357 b 589 302 589 329 589 303 b 687 165 589 227 615 165 b 928 331 772 165 928 310 z "},"n":{"ha":449,"x_min":0,"x_max":0,"o":"m 474 331 b 466 355 474 347 472 355 b 271 201 456 355 346 201 b 239 281 239 201 239 249 b 308 578 239 398 308 578 b 274 612 308 592 289 612 b 69 385 263 612 144 526 b 57 377 66 380 62 377 b 43 391 50 377 43 382 l 43 392 b 75 553 51 485 75 553 b 41 589 75 569 54 589 b 31 581 37 589 33 586 b -3 358 8 509 -3 433 b 16 197 -3 288 9 208 b 44 178 23 186 35 178 l 45 178 b 56 189 51 178 56 182 b 194 470 73 295 123 391 b 204 475 197 473 201 475 b 218 461 211 475 218 469 b 218 458 218 460 218 459 b 195 303 205 408 195 351 b 293 156 195 195 245 156 b 474 331 372 156 474 315 z "},"o":{"ha":272,"x_min":0,"x_max":0,"o":"m 206 391 b 133 484 206 450 167 484 b 117 473 124 484 117 482 b 149 438 117 459 134 438 b 161 416 160 438 161 431 b 4 155 161 293 46 155 b -2 156 2 155 1 155 b 98 371 -2 224 35 323 b 102 380 100 373 102 376 b 68 413 102 394 83 413 b -47 189 41 413 -47 293 b 20 110 -47 131 -6 110 b 206 391 98 110 206 277 z "},"p":{"ha":542,"x_min":0,"x_max":0,"o":"m 551 331 b 578 349 570 340 578 345 b 549 353 578 353 566 353 b 414 316 544 353 475 337 b 410 315 412 315 411 315 b 396 329 402 315 396 321 b 264 496 396 418 352 496 b 85 366 185 496 127 439 b 73 359 82 361 77 359 b 60 372 66 359 60 365 b 60 376 60 374 60 375 b 141 614 100 515 141 614 b 108 648 141 629 121 648 b -79 -268 86 648 -79 219 b -63 -548 -79 -362 -73 -458 b -30 -576 -62 -562 -43 -576 b -19 -564 -22 -576 -19 -571 b -25 -436 -19 -564 -25 -515 b 283 451 -25 -115 64 451 b 351 349 323 451 351 435 b 351 336 351 345 351 340 b 311 275 350 310 334 286 b 103 60 218 229 103 149 b 183 -22 103 17 138 -22 b 380 215 278 -22 350 107 b 422 267 386 237 401 256 b 551 331 473 291 550 330 z m 160 23 b 148 39 151 23 148 24 b 304 211 148 101 233 170 b 310 212 307 212 309 212 b 321 201 316 212 321 208 b 321 197 321 199 321 198 b 160 23 289 113 228 23 z "},"q":{"ha":594,"x_min":0,"x_max":0,"o":"m 616 354 b 256 -154 602 354 374 147 b 243 -163 253 -160 248 -163 b 229 -149 236 -163 229 -157 l 229 -148 b 455 467 242 70 319 288 b 458 477 457 471 458 474 b 425 511 458 492 439 511 l 423 511 b 401 488 420 511 416 509 b 373 472 395 477 384 472 b 348 482 364 472 355 475 b 260 512 328 500 299 512 b -55 186 77 512 -55 291 b 10 109 -55 140 -20 109 b 277 326 66 109 163 250 b 284 328 279 328 281 328 b 298 315 292 328 298 322 b 296 309 298 313 297 311 b 182 -191 220 149 182 -24 b 201 -381 182 -238 189 -365 b 229 -399 208 -391 219 -399 b 618 326 229 -399 273 6 b 624 344 621 328 624 336 b 616 354 624 349 622 354 z m 345 415 b 1 159 241 415 75 201 b -3 159 -1 159 -1 159 b -9 165 -6 159 -9 161 b 285 466 -9 245 102 466 b 353 414 357 466 315 435 l 353 413 b 345 415 350 414 347 415 z "},"r":{"ha":682,"x_min":0,"x_max":0,"o":"m 720 331 b 724 349 722 338 724 345 b 714 362 724 357 720 362 b 696 351 709 362 702 358 b 323 -11 578 191 399 -11 b 296 11 296 -11 296 2 b 509 563 296 127 509 424 b 408 637 509 617 462 637 b 267 619 368 637 309 627 b 258 618 264 618 261 618 b 220 639 243 618 229 626 b 54 722 184 693 123 722 b -103 631 -9 722 -103 694 b 46 538 -103 589 -61 538 b 180 553 91 538 136 545 b 184 553 181 553 182 553 b 209 528 197 553 209 542 l 209 526 b -89 -174 188 356 -89 216 b -77 -322 -89 -224 -84 -274 b -44 -351 -74 -337 -57 -351 b -33 -338 -37 -351 -33 -346 b -43 -199 -33 -338 -43 -271 b 255 523 -43 208 255 326 l 255 533 b 289 574 255 553 269 570 b 425 591 337 583 381 591 b 460 556 450 591 460 578 b 251 34 460 454 251 160 b 340 -56 251 -24 292 -56 b 720 331 468 -56 715 318 z m 31 583 b -63 617 -35 583 -63 599 b 79 677 -63 644 -4 677 b 182 634 122 677 158 664 b 186 621 184 630 186 626 b 170 601 186 612 180 603 b 31 583 114 590 73 583 z "},"s":{"ha":294,"x_min":0,"x_max":0,"o":"m 306 317 b 317 331 313 322 317 328 b 305 338 317 335 313 338 b 106 227 298 338 203 303 b 92 222 102 224 97 222 b 71 237 83 222 74 227 b 37 381 52 283 37 331 b 123 546 37 448 62 518 b 130 557 127 549 130 553 b 98 591 130 572 112 591 b -7 406 85 591 -7 549 b 43 207 -7 329 16 275 b 46 191 45 202 46 197 b 35 163 46 181 42 170 b -109 -89 -35 91 -109 -15 b -7 -197 -109 -149 -63 -197 b 138 -3 78 -197 138 -109 b 113 130 138 43 127 87 b 110 143 111 134 110 139 b 123 170 110 153 115 163 b 306 317 208 245 306 317 z m 94 18 b -28 -151 94 -87 30 -151 b -64 -113 -52 -151 -64 -141 b 53 102 -64 -47 1 44 b 66 108 56 106 61 108 b 83 95 73 108 81 103 b 94 18 90 69 94 43 z "},"t":{"ha":193,"x_min":0,"x_max":0,"o":"m 685 951 b 589 962 654 960 622 962 b 281 911 497 962 374 936 b 277 911 279 911 278 911 b 264 924 270 911 264 917 b 264 928 264 926 264 927 b 297 1117 279 986 297 1064 b 239 1209 297 1185 264 1209 b 81 884 173 1209 107 986 b 41 843 76 865 60 849 b -271 772 -96 802 -201 772 b -339 810 -332 772 -299 810 b -351 796 -347 810 -351 804 b -248 726 -351 763 -316 726 b 37 789 -187 726 -112 745 b 41 789 39 789 40 789 b 55 776 49 789 55 783 l 55 773 b -4 218 20 606 -4 408 b 21 -104 -4 101 5 -8 b 53 -132 23 -118 40 -132 b 65 -119 60 -132 65 -127 b 41 194 65 -119 41 13 b 47 372 41 251 43 310 b 60 415 48 387 52 401 b 233 822 129 541 191 693 b 269 857 238 839 252 852 b 611 917 374 885 507 917 b 695 907 656 917 680 911 b 700 907 696 907 699 907 b 712 920 707 907 712 912 b 685 951 712 932 699 948 z m 174 807 b 64 539 142 718 106 626 b 109 788 75 626 90 707 b 136 818 112 802 123 814 b 157 824 144 820 151 822 b 161 825 159 825 160 825 b 174 812 168 825 174 819 b 174 807 174 810 174 808 z m 252 1139 b 203 897 252 1072 224 964 b 194 888 202 892 199 889 l 151 876 b 147 875 150 876 149 875 b 134 888 140 875 134 881 b 134 892 134 889 134 890 b 237 1145 154 963 194 1090 b 243 1148 239 1147 241 1148 b 252 1139 248 1148 252 1145 z "},"u":{"ha":543,"x_min":0,"x_max":0,"o":"m 566 334 b 570 349 568 339 570 345 b 561 357 570 353 568 357 b 382 232 553 357 454 232 b 325 332 338 232 325 288 b 358 493 325 396 358 492 l 358 494 b 324 528 358 510 338 528 l 323 528 b 315 521 319 528 316 526 b 41 204 296 494 157 204 l 37 204 b 28 230 30 204 28 206 b 111 463 28 277 59 382 b 113 469 112 465 113 467 b 79 501 113 483 94 501 b -18 252 54 501 -18 327 b 62 159 -18 191 22 159 b 265 330 141 159 216 257 b 273 334 267 333 269 334 b 281 327 276 334 280 332 b 404 186 290 238 351 186 b 566 334 475 186 559 316 z "},"v":{"ha":467,"x_min":0,"x_max":0,"o":"m 496 331 b 500 347 498 335 500 341 b 491 354 500 351 498 354 b 287 244 480 354 364 244 b 274 257 279 244 274 250 b 275 262 274 259 275 260 b 359 507 304 324 359 453 b 326 553 359 543 332 553 b 213 304 309 553 213 418 b 215 284 213 297 214 291 b 216 274 216 281 216 277 b 210 247 216 264 214 256 b 56 44 176 177 115 64 b 23 162 26 45 23 137 b 83 425 23 309 83 425 b 50 458 83 439 64 458 b -21 189 28 458 -21 312 b 73 -1 -21 111 -5 -1 b 247 203 139 -1 212 134 b 258 210 249 208 254 210 b 265 209 261 210 263 210 b 309 199 277 202 292 199 b 496 331 383 199 490 316 z "},"w":{"ha":703,"x_min":0,"x_max":0,"o":"m 730 331 b 736 344 734 336 736 340 b 722 354 736 350 732 354 b 518 244 711 354 595 244 b 505 257 511 244 505 250 b 507 262 505 259 506 260 b 590 507 535 324 590 453 b 589 524 590 512 589 518 b 557 553 587 533 570 553 b 444 304 540 553 444 418 b 446 285 444 298 445 291 b 447 275 447 281 447 278 b 441 247 447 264 445 256 b 288 44 406 176 347 64 b 254 162 266 44 254 56 b 313 418 254 254 275 339 b 315 425 315 420 315 422 b 290 456 315 437 302 451 b 281 458 287 457 284 458 b 271 450 277 458 273 456 b 39 146 219 357 85 169 b 30 210 31 163 30 193 b 98 419 30 277 47 368 b 101 429 100 422 101 425 b 68 463 101 444 83 463 b -16 231 45 463 -16 355 b 54 99 -16 176 2 99 b 186 226 87 99 146 172 b 197 231 189 230 193 231 b 211 218 204 231 211 226 l 211 217 b 210 189 210 208 210 198 b 304 -1 210 111 226 -1 b 478 203 370 -1 443 133 b 490 210 480 208 485 210 b 496 209 492 210 494 210 b 539 199 509 202 523 199 b 730 331 614 199 720 319 z "},"x":{"ha":358,"x_min":0,"x_max":0,"o":"m 386 337 b 387 357 386 344 387 351 b 378 370 387 364 385 370 b 368 362 373 370 370 368 b 180 134 338 283 264 134 b 90 257 125 134 105 193 b 88 270 89 261 88 266 b 102 309 88 284 93 298 b 300 523 165 384 231 455 b 304 532 303 526 304 529 b 272 566 304 547 286 566 b 87 375 256 566 135 431 b 77 370 84 372 80 370 b 63 382 71 370 64 374 b 5 574 35 536 44 574 b -7 561 -3 574 -7 569 b 27 355 -7 558 8 450 b 28 339 28 350 28 345 b 9 281 28 319 22 298 b -101 132 -31 232 -101 143 b -67 98 -101 117 -81 98 b 36 229 -56 98 -62 105 b 47 233 39 232 43 233 b 59 224 52 233 57 231 b 199 88 83 155 125 88 b 386 337 326 88 386 328 z "},"y":{"ha":640,"x_min":0,"x_max":0,"o":"m 677 331 b 682 342 680 334 682 338 b 667 354 682 349 677 354 b 471 186 651 354 524 237 b 461 182 468 183 465 182 b 448 194 455 182 448 186 b 409 417 437 280 422 362 b 377 446 405 433 389 446 b 357 427 369 446 367 441 b 26 136 291 328 144 136 b -9 170 -5 136 -9 142 b 111 389 -9 224 31 320 b 115 399 113 391 115 395 b 81 432 115 412 96 432 b -54 191 56 432 -54 296 b 47 90 -54 132 -13 90 b 361 338 159 90 287 237 b 372 344 364 342 368 344 b 386 332 378 344 385 340 b 408 159 396 275 404 218 l 408 154 b 389 102 408 135 401 116 b 169 -317 288 -10 169 -174 b 275 -471 169 -394 208 -471 b 460 -28 437 -471 460 -191 b 458 60 460 1 460 31 l 458 62 b 481 119 458 84 466 104 b 677 331 555 199 677 331 z m 416 -18 b 244 -425 416 -181 395 -425 b 214 -341 229 -425 214 -380 b 391 22 214 -216 307 -79 b 401 26 394 25 398 26 b 415 13 408 26 415 21 b 416 -18 415 3 416 -8 z "},"z":{"ha":868,"x_min":0,"x_max":0,"o":"m 910 331 b 916 342 913 335 916 338 b 899 353 916 349 909 353 b 621 167 880 353 688 216 b 613 164 618 165 616 164 b 600 176 607 164 601 169 b 425 332 583 278 515 332 b 382 329 411 332 397 331 l 380 329 b 366 342 372 329 366 336 b 371 352 366 346 368 349 b 539 559 437 412 539 509 b 466 615 539 583 519 615 b -13 341 252 615 -13 384 b 21 308 -13 326 7 308 b 467 568 21 308 227 553 l 468 568 b 482 555 476 568 482 562 b 480 547 482 552 481 549 b 323 382 446 492 361 418 b 152 232 165 241 152 246 b 184 198 152 220 170 198 b 193 201 188 198 190 199 b 445 286 249 233 364 286 b 559 144 515 286 559 258 l 559 144 b 540 105 559 129 552 115 b 84 -471 377 -23 84 -279 b 180 -572 84 -532 128 -572 b 597 47 349 -572 560 -191 b 635 110 602 73 614 95 b 910 331 703 161 910 331 z m 162 -527 b 129 -496 136 -527 129 -517 b 516 16 129 -328 369 -106 b 524 19 519 18 522 19 b 538 5 532 19 538 14 b 538 2 538 5 538 3 b 162 -527 473 -241 284 -527 z "},"{":{"ha":387,"x_min":0,"x_max":0,"o":""},"|":{"ha":58,"x_min":0,"x_max":0,"o":""},"}":{"ha":411,"x_min":0,"x_max":0,"o":""},"~":{"ha":583,"x_min":0,"x_max":0,"o":""},"¡":{"ha":294,"x_min":0,"x_max":0,"o":""},"¢":{"ha":494,"x_min":0,"x_max":0,"o":""},"£":{"ha":697,"x_min":0,"x_max":0,"o":""},"¤":{"ha":674,"x_min":0,"x_max":0,"o":""},"¥":{"ha":800,"x_min":0,"x_max":0,"o":""},"¦":{"ha":137,"x_min":0,"x_max":0,"o":""},"§":{"ha":483,"x_min":0,"x_max":0,"o":""},"¨":{"ha":197,"x_min":0,"x_max":0,"o":""},"©":{"ha":917,"x_min":0,"x_max":0,"o":""},"ª":{"ha":252,"x_min":0,"x_max":0,"o":""},"«":{"ha":337,"x_min":0,"x_max":0,"o":""},"¬":{"ha":671,"x_min":0,"x_max":0,"o":""},"®":{"ha":853,"x_min":0,"x_max":0,"o":""},"¯":{"ha":760,"x_min":0,"x_max":0,"o":""},"°":{"ha":256,"x_min":0,"x_max":0,"o":""},"±":{"ha":435,"x_min":0,"x_max":0,"o":""},"²":{"ha":214,"x_min":0,"x_max":0,"o":""},"³":{"ha":209,"x_min":0,"x_max":0,"o":""},"´":{"ha":132,"x_min":0,"x_max":0,"o":""},"µ":{"ha":433,"x_min":0,"x_max":0,"o":""},"¶":{"ha":547,"x_min":0,"x_max":0,"o":""},"·":{"ha":55,"x_min":0,"x_max":0,"o":""},"¸":{"ha":191,"x_min":0,"x_max":0,"o":""},"¹":{"ha":140,"x_min":0,"x_max":0,"o":""},"º":{"ha":205,"x_min":0,"x_max":0,"o":""},"»":{"ha":337,"x_min":0,"x_max":0,"o":""},"¼":{"ha":671,"x_min":0,"x_max":0,"o":""},"½":{"ha":622,"x_min":0,"x_max":0,"o":""},"¾":{"ha":668,"x_min":0,"x_max":0,"o":""},"¿":{"ha":460,"x_min":0,"x_max":0,"o":""},"À":{"ha":1221,"x_min":0,"x_max":0,"o":""},"Á":{"ha":1221,"x_min":0,"x_max":0,"o":""},"Â":{"ha":1221,"x_min":0,"x_max":0,"o":""},"Ã":{"ha":1221,"x_min":0,"x_max":0,"o":""},"Ä":{"ha":1221,"x_min":0,"x_max":0,"o":""},"Å":{"ha":1221,"x_min":0,"x_max":0,"o":""},"Æ":{"ha":2119,"x_min":0,"x_max":0,"o":""},"Ç":{"ha":1136,"x_min":0,"x_max":0,"o":""},"È":{"ha":1383,"x_min":0,"x_max":0,"o":""},"É":{"ha":1388,"x_min":0,"x_max":0,"o":""},"Ê":{"ha":1388,"x_min":0,"x_max":0,"o":""},"Ë":{"ha":1388,"x_min":0,"x_max":0,"o":""},"Ì":{"ha":460,"x_min":0,"x_max":0,"o":""},"Í":{"ha":460,"x_min":0,"x_max":0,"o":""},"Î":{"ha":460,"x_min":0,"x_max":0,"o":""},"Ï":{"ha":460,"x_min":0,"x_max":0,"o":""},"Ð":{"ha":1242,"x_min":0,"x_max":0,"o":""},"Ñ":{"ha":1070,"x_min":0,"x_max":0,"o":""},"Ò":{"ha":983,"x_min":0,"x_max":0,"o":""},"Ó":{"ha":983,"x_min":0,"x_max":0,"o":""},"Ô":{"ha":983,"x_min":0,"x_max":0,"o":""},"Õ":{"ha":983,"x_min":0,"x_max":0,"o":""},"Ö":{"ha":983,"x_min":0,"x_max":0,"o":""},"×":{"ha":471,"x_min":0,"x_max":0,"o":""},"Ø":{"ha":983,"x_min":0,"x_max":0,"o":""},"Ù":{"ha":1161,"x_min":0,"x_max":0,"o":""},"Ú":{"ha":1161,"x_min":0,"x_max":0,"o":""},"Û":{"ha":1161,"x_min":0,"x_max":0,"o":""},"Ü":{"ha":1161,"x_min":0,"x_max":0,"o":""},"Ÿ":{"ha":745,"x_min":0,"x_max":0,"o":""},"Ý":{"ha":745,"x_min":0,"x_max":0,"o":""},"Þ":{"ha":1903,"x_min":0,"x_max":0,"o":""},"ß":{"ha":551,"x_min":0,"x_max":0,"o":""},"à":{"ha":473,"x_min":0,"x_max":0,"o":""},"á":{"ha":473,"x_min":0,"x_max":0,"o":""},"â":{"ha":473,"x_min":0,"x_max":0,"o":""},"ã":{"ha":473,"x_min":0,"x_max":0,"o":""},"ä":{"ha":473,"x_min":0,"x_max":0,"o":""},"å":{"ha":473,"x_min":0,"x_max":0,"o":""},"æ":{"ha":617,"x_min":0,"x_max":0,"o":""},"ç":{"ha":411,"x_min":0,"x_max":0,"o":""},"è":{"ha":410,"x_min":0,"x_max":0,"o":""},"é":{"ha":410,"x_min":0,"x_max":0,"o":""},"ê":{"ha":410,"x_min":0,"x_max":0,"o":""},"ë":{"ha":410,"x_min":0,"x_max":0,"o":""},"ì":{"ha":288,"x_min":0,"x_max":0,"o":""},"í":{"ha":288,"x_min":0,"x_max":0,"o":""},"î":{"ha":291,"x_min":0,"x_max":0,"o":""},"ï":{"ha":288,"x_min":0,"x_max":0,"o":""},"ð":{"ha":381,"x_min":0,"x_max":0,"o":""},"ñ":{"ha":449,"x_min":0,"x_max":0,"o":""},"ò":{"ha":272,"x_min":0,"x_max":0,"o":""},"ó":{"ha":272,"x_min":0,"x_max":0,"o":""},"ô":{"ha":272,"x_min":0,"x_max":0,"o":""},"õ":{"ha":272,"x_min":0,"x_max":0,"o":""},"ö":{"ha":272,"x_min":0,"x_max":0,"o":""},"÷":{"ha":370,"x_min":0,"x_max":0,"o":""},"ø":{"ha":252,"x_min":0,"x_max":0,"o":""},"ù":{"ha":543,"x_min":0,"x_max":0,"o":""},"ú":{"ha":543,"x_min":0,"x_max":0,"o":""},"û":{"ha":543,"x_min":0,"x_max":0,"o":""},"ü":{"ha":543,"x_min":0,"x_max":0,"o":""},"ý":{"ha":640,"x_min":0,"x_max":0,"o":""},"þ":{"ha":256,"x_min":0,"x_max":0,"o":""},"ÿ":{"ha":640,"x_min":0,"x_max":0,"o":""},"ı":{"ha":288,"x_min":0,"x_max":0,"o":""},"ˆ":{"ha":208,"x_min":0,"x_max":0,"o":""},"ˇ":{"ha":216,"x_min":0,"x_max":0,"o":""},"ˉ":{"ha":256,"x_min":0,"x_max":0,"o":""},"˘":{"ha":248,"x_min":0,"x_max":0,"o":""},"˙":{"ha":55,"x_min":0,"x_max":0,"o":""},"˚":{"ha":165,"x_min":0,"x_max":0,"o":""},"˛":{"ha":159,"x_min":0,"x_max":0,"o":""},"˜":{"ha":294,"x_min":0,"x_max":0,"o":""},"˝":{"ha":176,"x_min":0,"x_max":0,"o":""},"–":{"ha":423,"x_min":0,"x_max":0,"o":""},"—":{"ha":631,"x_min":0,"x_max":0,"o":""},"‘":{"ha":63,"x_min":0,"x_max":0,"o":""},"’":{"ha":63,"x_min":0,"x_max":0,"o":""},"‚":{"ha":63,"x_min":0,"x_max":0,"o":""},"“":{"ha":159,"x_min":0,"x_max":0,"o":""},"”":{"ha":159,"x_min":0,"x_max":0,"o":""},"„":{"ha":159,"x_min":0,"x_max":0,"o":""},"†":{"ha":550,"x_min":0,"x_max":0,"o":""},"‡":{"ha":599,"x_min":0,"x_max":0,"o":""},"•":{"ha":269,"x_min":0,"x_max":0,"o":""},"…":{"ha":334,"x_min":0,"x_max":0,"o":""},"‹":{"ha":207,"x_min":0,"x_max":0,"o":""},"›":{"ha":207,"x_min":0,"x_max":0,"o":""},"⁄":{"ha":636,"x_min":0,"x_max":0,"o":""},"₣":{"ha":724,"x_min":0,"x_max":0,"o":""},"₤":{"ha":819,"x_min":0,"x_max":0,"o":""},"€":{"ha":671,"x_min":0,"x_max":0,"o":""},"≈":{"ha":674,"x_min":0,"x_max":0,"o":""},"≤":{"ha":583,"x_min":0,"x_max":0,"o":""},"≥":{"ha":583,"x_min":0,"x_max":0,"o":""},"":{"ha":1211,"x_min":0,"x_max":0,"o":"m 1563 766 b 1531 801 1563 780 1546 801 b 1292 785 1529 801 1415 794 l 1291 785 b 1272 804 1280 785 1272 794 b 1274 812 1272 806 1272 809 b 1385 1160 1316 907 1385 1075 b 1329 1235 1385 1213 1353 1235 b 1120 807 1239 1235 1152 935 b 1076 770 1114 787 1097 772 b 173 690 895 758 173 707 b 205 655 173 676 191 655 b 1059 722 205 655 605 689 l 1061 722 b 1093 690 1080 722 1093 708 b 1093 685 1093 689 1093 687 b 1068 549 1083 640 1076 595 b 1059 524 1067 540 1063 531 b 812 269 1006 439 901 290 b 801 268 808 269 804 268 b 787 305 791 268 787 274 b 854 529 787 380 824 479 b 857 538 856 531 857 535 b 824 571 857 553 837 571 b 516 213 811 571 650 402 b 505 207 513 209 509 207 b 492 220 498 207 492 212 b 492 225 492 222 492 223 b 686 597 563 409 686 597 b 652 630 686 612 665 630 b 643 626 649 630 646 629 b 252 313 541 526 342 313 b 249 316 250 313 249 314 b 250 330 249 319 250 323 b 296 418 250 364 270 396 b 300 427 298 420 300 423 b 296 440 300 431 298 436 b 267 460 290 450 277 460 b 250 452 262 460 260 460 b 239 448 246 449 242 448 b 224 454 233 448 228 450 b 174 466 213 465 197 466 b -11 327 70 466 -11 382 b 50 269 -11 298 12 269 b 186 335 91 269 133 296 b 194 338 189 337 191 338 b 208 328 200 338 205 334 b 278 269 216 295 242 269 b 477 389 332 269 415 334 b 486 393 480 392 484 393 b 500 380 494 393 500 387 b 498 374 500 378 500 376 b 392 6 422 216 392 71 b 425 -26 392 -8 411 -26 b 437 -19 431 -26 435 -24 b 723 389 515 128 614 264 b 734 393 726 392 730 393 b 747 380 741 393 747 388 l 747 378 b 742 329 744 361 742 345 b 822 223 742 275 770 223 b 1021 374 891 223 969 306 b 1031 379 1023 378 1027 379 b 1045 366 1038 379 1045 374 l 1045 365 b 1032 94 1037 275 1032 184 b 1041 -121 1032 22 1035 -49 b 1074 -155 1043 -139 1059 -155 b 1086 -145 1080 -155 1086 -153 b 1077 71 1086 -145 1077 -50 b 1105 473 1077 205 1087 341 b 1125 529 1108 493 1115 512 b 1229 719 1162 591 1197 654 b 1255 736 1234 728 1244 735 b 1563 764 1553 756 1563 752 z m 53 318 b 50 317 52 317 51 317 b 41 327 45 317 41 322 b 42 331 41 328 41 330 b 195 420 62 372 123 420 b 199 416 197 420 199 418 b 197 412 199 415 199 414 b 53 318 138 367 90 330 z m 1332 1182 b 1335 1183 1333 1183 1334 1183 b 1339 1178 1337 1183 1339 1181 b 1206 793 1338 1082 1248 880 b 1185 778 1202 785 1194 779 l 1183 778 b 1168 793 1175 778 1168 785 b 1168 798 1168 795 1168 796 b 1332 1182 1188 872 1262 1134 z m 1141 681 b 1150 720 1144 694 1147 707 b 1160 729 1151 726 1155 729 l 1161 729 b 1170 721 1166 729 1170 726 b 1168 717 1170 720 1169 718 b 1149 678 1162 704 1156 691 b 1145 676 1148 677 1146 676 b 1141 680 1143 676 1141 677 z "}}}
